<svg width="226" height="96" viewBox="0 0 226 96" fill="none" xmlns="http://www.w3.org/2000/svg">
<path d="M146.907 35.5449C145.648 38.5556 144.747 41.1553 144.124 43.1217C144.124 43.1217 141.877 50.1931 142.339 55.448C142.403 56.1479 142.605 58.0699 144.02 59.3364C144.54 59.7975 144.915 59.9141 145.019 59.9419C146.751 60.4307 148.53 58.4088 148.645 58.2754C148.466 58.6476 148.195 59.1642 147.802 59.7419C146.93 61.0418 145.718 63.4415 143.812 63.2304C135.063 62.2472 139.365 45.0382 139.874 42.6662C141.646 34.345 146.081 28.1902 149.061 24.735C149.061 24.735 148.235 33.5118 147.04 35.3171L146.907 35.5449Z" fill="#160F22"/>
<path d="M147.837 40.1277C150.355 39.9222 152.394 38.9945 153.947 38.2891C150.586 38.7557 146.428 38.8945 141.82 38.0113C140.85 37.828 139.926 37.6114 139.048 37.3669C139.054 37.3725 135.254 41.1443 147.837 40.1277Z" fill="#160F22"/>
<path d="M152.849 60.0531C152.335 60.3253 152.41 60.0031 152.41 60.0031C150.118 49.921 158.624 48.2323 158.624 48.2323L158.884 48.2489C158.601 47.7157 158.127 47.0546 157.342 46.6991C154.789 45.5381 151.325 48.66 151.001 48.9544C146.786 52.8373 148.293 59.8087 148.512 60.7752C148.512 60.7752 149.251 63.2138 150.961 63.0971C153.467 62.9305 153.34 62.2028 154.079 61.3474L156.689 55.8091C156.689 55.8091 156.031 60.6974 160.997 62.1139C160.997 62.1139 158.566 59.5198 159.611 55.5814C159.611 55.5814 161.136 51.5652 160.749 50.8097C160.749 50.8097 160.206 49.2599 158.456 49.9987C158.456 49.9987 156.568 50.8264 155.933 53.8538C155.944 53.8538 153.935 59.1754 152.849 60.0531Z" fill="#160F22"/>
<path d="M191.835 59.3363C191.321 59.6084 191.397 59.2863 191.397 59.2863C189.104 49.2041 197.61 47.5155 197.61 47.5155L197.87 47.5321C197.587 46.9989 197.113 46.3378 196.328 45.9823C193.776 44.8213 190.311 47.9432 189.987 48.2376C185.778 52.1205 187.285 59.0918 187.51 60.0584C187.51 60.0584 188.249 62.497 189.959 62.3803C192.465 62.2137 192.338 61.486 193.077 60.6305L195.687 55.0923C195.687 55.0923 195.214 57.5531 196.929 59.7418C196.929 59.7418 197.928 61.1583 199.273 61.1583C199.273 61.1583 198.222 58.7308 199.273 54.7924C199.273 54.7924 200.134 50.8539 199.747 50.0929C199.747 50.0929 199.204 48.5431 197.454 49.2819C197.454 49.2819 195.566 50.1096 194.931 53.137C194.936 53.137 192.921 58.4586 191.835 59.3363Z" fill="#160F22"/>
<path d="M169.966 53.2428C172.23 50.4154 169.857 46.377 167.027 47.4491C163.239 48.8822 160.692 54.5482 161.218 58.2033C161.339 59.0532 161.472 61.103 163.123 61.9584C167.633 64.297 171.329 56.959 171.531 56.6757C171.364 56.7646 165.121 62.3306 164.295 59.4476C162.269 52.404 165.479 49.2544 168.078 49.4099C168.592 49.4433 169.937 49.7266 169.868 51.3875C169.851 51.8152 169.372 53.9872 169.966 53.2428Z" fill="#160F22"/>
<path d="M185.165 28.4401C184.49 27.7735 183.433 27.8235 183.277 27.8346C182.26 27.8957 181.585 28.5567 181.14 28.8789C173.887 34.1449 169.775 64.6746 174.978 62.3582C177.583 61.1972 175.77 56.0034 175.891 55.7923C181.816 45.0214 185.35 33.5339 185.627 31.2064C185.795 29.701 185.679 28.9456 185.165 28.4401ZM175.885 53.5315C176.416 49.0654 177.19 45.4547 177.849 42.855C178.241 41.283 178.559 40.0387 179.142 38.4444C180.499 34.7338 182.278 31.9341 183.623 30.0899C183.641 30.3565 181.868 40.2553 175.885 53.5315Z" fill="#160F22"/>
<path d="M176.567 54.2927C176.255 54.5093 177.491 51.8152 179.755 50.982C180.182 50.8264 181.655 50.2821 182.966 50.8986C184.935 51.8208 185.125 54.676 185.224 56.0758C185.46 59.5698 183.97 62.4084 182.902 63.997C183.491 62.7305 185.264 58.6033 183.318 54.8093C182.527 53.265 180.517 51.5597 176.567 54.2927Z" fill="#160F22"/>
<path d="M115.44 62.3944C117.988 62.3944 120.053 60.3326 120.053 57.7892C120.053 55.2459 117.988 53.1841 115.44 53.1841C112.893 53.1841 110.828 55.2459 110.828 57.7892C110.828 60.3326 112.893 62.3944 115.44 62.3944Z" fill="url(#paint0_radial)"/>
<path d="M116.03 60.8961C116.03 60.1229 115.296 60.4103 114.961 60.4719C114.625 60.5335 114.501 60.3761 113.987 60.0066C106.304 54.4845 61.59 14.9747 39.5001 14.8789C35.4508 14.8996 31.4229 15.4682 27.5265 16.5691C25.5115 17.1849 13.5996 21.0784 6.12211 32.6289C-1.41708 44.3436 -1.86258 61.3683 4.06596 72.0771C16.5536 94.4185 35.4084 97.0325 61.5146 88.657C83.7689 81.5337 94.687 65.2891 99.8959 60.9577C30.6724 96.8067 10.111 61.9225 17.5405 45.7532C34.6339 8.72047 79.7457 41.7502 113.953 60.6019C114.591 60.9337 115.324 61.0376 116.03 60.8961V60.8961Z" fill="url(#paint1_linear)"/>
<path d="M116.03 60.8961C116.03 60.1229 115.296 60.4103 114.961 60.4719C114.625 60.5335 114.501 60.3761 113.987 60.0066C106.304 54.4845 61.59 14.9747 39.5001 14.8789C35.4508 14.8996 31.4229 15.4682 27.5265 16.5691C25.5115 17.1849 13.5996 21.0784 6.12211 32.6289C-1.41708 44.3436 -1.86258 61.3683 4.06596 72.0771C16.5536 94.4185 35.4084 97.0325 61.5146 88.657C83.7689 81.5337 94.687 65.2891 99.8959 60.9577C30.6724 96.8067 10.111 61.9225 17.5405 45.7532C34.6339 8.72047 79.7457 41.7502 113.953 60.6019C114.591 60.9337 115.324 61.0376 116.03 60.8961V60.8961Z" fill="url(#paint2_linear)"/>
<path d="M116.03 60.8961C116.03 60.1229 115.296 60.4103 114.961 60.4719C114.625 60.5335 114.501 60.3761 113.987 60.0066C106.304 54.4845 61.59 14.9747 39.5001 14.8789C35.4508 14.8996 31.4229 15.4682 27.5265 16.5691C25.5115 17.1849 13.5996 21.0784 6.12211 32.6289C-1.41708 44.3436 -1.86258 61.3683 4.06596 72.0771C16.5536 94.4185 35.4084 97.0325 61.5146 88.657C83.7689 81.5337 94.687 65.2891 99.8959 60.9577C30.6724 96.8067 10.111 61.9225 17.5405 45.7532C34.6339 8.72047 79.7457 41.7502 113.953 60.6019C114.591 60.9337 115.324 61.0376 116.03 60.8961V60.8961Z" fill="url(#paint3_linear)"/>
<path d="M114.844 54.6757C114.844 54.8058 114.899 55.3121 115.783 55.2095C116.33 55.1347 116.886 55.2691 117.339 55.5858C126.331 62.278 166.432 92.5365 191.209 85.8853C202.908 82.7445 214.759 78.8784 222.853 60.5673C228.871 46.9298 225.807 28.8103 217.493 18.6694C200.153 -2.48825 179.53 -2.20086 153.931 12.0662C136.488 21.7623 126.598 29.2482 121.91 34.8045C187.384 1.95951 208.912 32.6285 209.557 44.0559C211.503 78.5431 152.67 80.2469 117.208 55.1547C116.87 54.914 116.484 54.747 116.077 54.6645C115.67 54.582 115.25 54.5858 114.844 54.6757V54.6757Z" fill="url(#paint4_linear)"/>
<path d="M114.844 54.6757C114.844 54.8058 114.899 55.3121 115.783 55.2095C116.33 55.1347 116.886 55.2691 117.339 55.5858C126.331 62.278 166.432 92.5365 191.209 85.8853C202.908 82.7445 214.759 78.8784 222.853 60.5673C228.871 46.9298 225.807 28.8103 217.493 18.6694C200.153 -2.48825 179.53 -2.20086 153.931 12.0662C136.488 21.7623 126.598 29.2482 121.91 34.8045C187.384 1.95951 208.912 32.6285 209.557 44.0559C211.503 78.5431 152.67 80.2469 117.208 55.1547C116.87 54.914 116.484 54.747 116.077 54.6645C115.67 54.582 115.25 54.5858 114.844 54.6757V54.6757Z" fill="url(#paint5_linear)"/>
<path d="M114.844 54.6757C114.844 54.8058 114.899 55.3121 115.783 55.2095C116.33 55.1347 116.886 55.2691 117.339 55.5858C126.331 62.278 166.432 92.5365 191.209 85.8853C202.908 82.7445 214.759 78.8784 222.853 60.5673C228.871 46.9298 225.807 28.8103 217.493 18.6694C200.153 -2.48825 179.53 -2.20086 153.931 12.0662C136.488 21.7623 126.598 29.2482 121.91 34.8045C187.384 1.95951 208.912 32.6285 209.557 44.0559C211.503 78.5431 152.67 80.2469 117.208 55.1547C116.87 54.914 116.484 54.747 116.077 54.6645C115.67 54.582 115.25 54.5858 114.844 54.6757V54.6757Z" fill="url(#paint6_linear)"/>
<path fill-rule="evenodd" clip-rule="evenodd" d="M128.483 94.528C107.86 75.2658 134.61 28.9338 134.61 28.9338C116.79 37.1451 111.862 45.7532 100.567 60.0408C63.7212 106.653 26.9231 71.4955 27.1081 71.5776C72.2679 91.6199 116.516 36.3787 127.749 27.1958C128.435 26.6278 133.801 23.6718 126.235 23.7744C125.673 23.7744 102.144 22.4811 99.2444 33.5937C98.9017 34.9075 99.8544 38.4589 100.458 39.0679C96.1122 37.7541 88.9706 26.9768 95.5228 20.2846C95.5719 20.233 95.6246 20.185 95.6805 20.1409C110.252 7.37243 132.691 -10.1791 145.398 7.44085C145.727 8.12513 145.652 9.74685 145.562 11.7039C145.329 16.9385 149.497 21.749 154.143 22.3785C154.486 22.4264 141.567 24.6434 137.317 30.0834C132.437 36.3308 119.648 77.4965 129.456 90.6824C131.327 93.1937 131.766 93.31 132.06 93.1116C134.288 91.5993 135.323 90.833 135.926 90.5182C136.07 90.4498 136.001 90.6003 136.097 90.7303C136.193 90.8603 131.361 94.5212 131.135 94.747C130.722 94.9787 130.248 95.0816 129.775 95.0426C129.303 95.0036 128.853 94.8244 128.483 94.528V94.528Z" fill="#1D152C"/>
<defs>
<radialGradient id="paint0_radial" cx="0" cy="0" r="1" gradientUnits="userSpaceOnUse" gradientTransform="translate(115.44 57.7892) scale(4.61262 4.60515)">
<stop stop-color="white" stop-opacity="0"/>
<stop offset="0.54" stop-color="#FED42D"/>
<stop offset="1" stop-color="white" stop-opacity="0"/>
</radialGradient>
<linearGradient id="paint1_linear" x1="4.47719" y1="70.4964" x2="87.2884" y2="33.5692" gradientUnits="userSpaceOnUse">
<stop offset="0.16" stop-color="#7441B0"/>
<stop offset="0.27" stop-color="#5B62C1"/>
<stop offset="0.41" stop-color="#4285D2"/>
<stop offset="0.55" stop-color="#2EA0DF"/>
<stop offset="0.69" stop-color="#20B3E8"/>
<stop offset="0.84" stop-color="#18BEEE"/>
<stop offset="1" stop-color="#15C2F0"/>
</linearGradient>
<linearGradient id="paint2_linear" x1="59.7806" y1="91.9483" x2="55.6952" y2="13.975" gradientUnits="userSpaceOnUse">
<stop offset="0.22" stop-color="#1D152C"/>
<stop offset="0.32" stop-color="#3D364A" stop-opacity="0.86"/>
<stop offset="0.98" stop-color="white" stop-opacity="0"/>
</linearGradient>
<linearGradient id="paint3_linear" x1="65.7228" y1="44.0973" x2="84.0278" y2="36.6865" gradientUnits="userSpaceOnUse">
<stop stop-color="#0FCAF4" stop-opacity="0"/>
<stop offset="0.91" stop-color="#AFF54E"/>
</linearGradient>
<linearGradient id="paint4_linear" x1="126.502" y1="75.7923" x2="220.745" y2="23.4735" gradientUnits="userSpaceOnUse">
<stop offset="0.6" stop-color="#15C2F0"/>
<stop offset="0.82" stop-color="#7441B0"/>
</linearGradient>
<linearGradient id="paint5_linear" x1="151.046" y1="71.3035" x2="173.702" y2="48.6106" gradientUnits="userSpaceOnUse">
<stop offset="0.37" stop-color="#AFF54E"/>
<stop offset="0.98" stop-color="#0FCAF4" stop-opacity="0"/>
</linearGradient>
<linearGradient id="paint6_linear" x1="178.543" y1="93.296" x2="165.521" y2="19.8665" gradientUnits="userSpaceOnUse">
<stop offset="0.36" stop-color="white" stop-opacity="0"/>
<stop offset="0.84" stop-color="#1D152C"/>
</linearGradient>
</defs>
</svg>
